<svg xmlns="http://www.w3.org/2000/svg" viewBox="3.0338 13.8848 274.7956 108.7724" role="img" aria-labelledby="title">
  <title id="title">Podpis Weroniki Cudnej</title>
  <path d="M40.6332 79.6709 C40.6610 79.6612 41.5417 79.6714 41.6543 79.6706 C42.3198 79.6657 42.8851 79.6190 42.4930 80.6800 C42.2150 81.4329 41.8394 82.1086 41.4133 82.7756 C40.7931 83.7465 40.1136 85.1522 39.5133 86.0922 C39.1725 86.6251 38.7221 87.5313 38.3329 88.0875 L36.6985 90.7058 C34.6915 93.7670 32.9318 96.4871 30.8234 99.5737 C30.2522 100.4103 29.6898 101.2326 29.1226 102.0688 L27.3555 104.4978 C26.7259 105.3675 25.7196 106.5858 25.1317 107.4909 L22.4306 111.1405 C22.3563 111.2292 22.2650 111.2899 22.1800 111.4002 C22.0329 111.5918 22.1323 111.5357 21.9501 111.7375 C21.8492 111.8486 21.7860 111.8826 21.7026 112.0003 L21.0161 112.9014 C20.8653 113.0624 20.6410 113.2433 20.5041 113.4099 C19.5185 114.6093 19.0837 115.0563 17.9802 116.1595 C17.4566 116.6834 16.4565 117.9995 15.5752 118.0072 C14.5412 118.0162 14.4159 118.1514 14.1389 117.3359 C13.4810 115.4013 13.5808 114.8315 13.5816 112.6684 L13.9929 109.9040 C14.1443 109.3493 14.2557 108.7645 14.3898 108.2030 C15.1982 104.8116 16.9325 100.6070 18.5547 97.6252 C18.6951 97.3673 18.7858 97.2890 18.9351 96.9849 C19.2464 96.3525 20.0849 94.8490 20.4783 94.2752 C20.6376 94.0434 20.7799 93.8594 20.9004 93.6199 C21.2134 92.9991 22.2868 91.7031 22.6366 91.1602 C23.0791 90.4743 24.0911 89.5312 24.6424 88.9699 C24.8666 88.7420 25.1634 88.5631 25.7488 87.9778 C26.1513 87.5755 26.3908 87.2977 26.8461 86.9774 C27.2438 86.6977 27.4569 86.3031 27.9456 85.9788 C28.1341 85.8541 28.3283 85.6596 28.5463 85.5020 C29.2484 84.9946 29.6342 84.6890 30.4852 84.2658 C31.2412 83.8899 31.3313 83.4435 33.0160 82.6002 C34.3429 81.9360 35.9884 81.2577 37.3629 80.6531 C37.8190 80.4524 38.4528 80.2871 38.9313 80.1235 L40.1939 79.7984 C40.6205 79.7326 40.4527 79.7332 40.6332 79.6709 Z M15.1044 120.1572 L13.6911 120.1572 C13.6466 120.1487 13.6015 120.1394 13.5570 120.1292 C12.1802 119.8103 11.6793 119.2334 11.4177 117.7322 C11.3119 117.1262 11.2088 116.4042 11.2028 115.6762 C11.1946 114.7153 11.4520 113.5755 11.5398 112.6678 C11.7632 110.3633 12.8375 106.8080 13.5414 104.5760 C13.9110 103.4028 14.3436 102.3540 14.7334 101.2320 L16.0611 98.0802 C16.8032 96.6240 17.4988 95.0573 18.3969 93.7247 C18.5335 93.5221 18.6653 93.2621 18.8249 93.0186 C18.9570 92.8171 19.1186 92.5827 19.2784 92.3383 C19.7855 91.5630 20.3919 90.8581 20.7088 90.3663 L22.2318 88.5436 C22.8892 87.7995 23.7668 87.0112 24.4729 86.3053 C24.8751 85.9031 25.1524 85.5119 25.5501 85.1145 C25.7391 84.9254 25.9294 84.7378 26.1170 84.5470 C26.3673 84.2922 26.4787 84.2749 26.7137 84.0665 C27.3759 83.4795 28.5330 82.5245 29.3108 82.1271 C30.0932 81.7274 31.2466 80.9890 32.1846 80.5215 C33.7221 79.7548 35.3018 79.0895 36.8768 78.4661 C37.4046 78.2572 37.9752 78.0894 38.5611 77.9389 C39.3576 77.7348 40.5286 77.3918 41.4258 77.4014 C41.7121 77.4043 42.2974 77.4340 42.5523 77.3941 C43.6385 77.2234 44.0155 77.4556 44.3701 76.9436 C44.8021 76.3203 46.3513 73.1115 46.6625 72.4881 C47.8123 70.1861 48.8546 67.8869 49.8212 65.4968 C50.2846 64.3502 51.0585 62.6318 51.4514 61.5135 C51.8349 60.4228 52.3012 59.3198 52.6547 58.2372 C52.8372 57.6788 53.0167 57.1502 53.2074 56.5784 C54.2554 53.4351 58.1224 41.3759 53.2414 38.9381 C52.6003 38.6175 52.3375 38.5640 51.4057 38.5053 C51.0460 38.4829 50.9457 38.3737 50.3824 38.3859 C49.9190 38.3959 49.9944 38.5132 49.4246 38.5064 C47.4279 38.4820 43.9189 39.4495 42.0369 40.0777 C39.8696 40.8008 37.7351 41.7337 35.6981 42.7550 L34.2615 43.5864 C33.7689 43.8871 33.2600 44.0445 32.7489 44.2851 C32.4507 44.4260 32.3354 44.5482 32.0323 44.7029 C31.8044 44.8194 31.5493 45.0029 31.3611 45.1656 C30.6244 45.8025 30.0183 46.0338 29.3406 46.4908 C29.1399 46.6263 28.8743 46.7586 28.6325 46.9165 C28.2538 47.1634 27.7965 47.6739 27.3864 47.9384 C26.8030 48.3146 26.5329 48.7276 26.1658 48.9861 C25.7947 49.2472 24.8420 50.2019 24.3842 50.5503 C24.1914 50.6965 24.2476 50.5984 24.0469 50.7799 C23.5613 51.2184 22.9462 51.6515 22.5448 52.0563 C22.1491 52.4549 21.7565 52.7309 21.3540 53.1337 L17.4127 57.0739 C17.1405 57.3398 17.1343 57.4665 16.9050 57.7006 C16.7017 57.9090 16.5430 58.0595 16.3341 58.2639 C16.0821 58.5105 16.0855 58.6347 15.8559 58.8629 L14.7847 60.0596 C14.2801 60.7762 13.7931 61.2306 13.3155 61.9362 C13.2029 62.1029 12.9597 62.4158 12.8214 62.5760 C12.6992 62.7177 12.4291 63.0825 12.3367 63.2254 C10.7688 65.6552 8.7075 68.9026 7.9560 71.7732 C7.8333 72.2421 7.8650 72.7600 7.7409 73.2110 C7.6408 73.5735 7.9492 74.6824 8.0867 75.0198 C8.2205 75.3480 8.3463 75.4554 8.5034 75.7372 C8.7386 76.1587 8.6238 76.4153 8.8226 76.4955 L8.8226 76.8356 C8.5691 76.9275 8.3004 77.1208 7.9645 77.1684 C7.6266 77.2166 7.0957 77.2109 6.8519 77.1052 C6.0341 76.7509 5.6616 76.0346 5.5338 75.2080 L5.5338 73.5752 C5.6154 72.8782 5.7733 72.2118 5.9046 71.7063 C6.1883 70.6116 6.7445 69.3377 7.1966 68.2917 L8.8438 65.2329 C9.9057 63.4629 11.1121 61.5935 12.4506 59.9939 C12.5943 59.8224 12.5354 59.8337 12.6811 59.6574 C13.0881 59.1647 13.8597 58.1420 14.2968 57.7006 C14.5250 57.4699 14.5321 57.3395 14.8042 57.0739 C15.2303 56.6581 15.3632 56.4027 15.9389 55.8269 C16.5555 55.2107 17.0269 54.6185 17.6403 54.0128 C18.2849 53.3755 19.1299 51.9911 19.8315 51.4976 C20.1498 51.2734 20.1858 51.2402 20.4752 50.9505 C21.0436 50.3819 21.3026 50.2435 21.6941 49.8444 L24.2212 47.6654 C24.4108 47.5212 24.3969 47.5892 24.5883 47.4086 L28.2240 44.5802 C28.4227 44.4342 28.7113 44.2554 28.9409 44.1063 C29.2093 43.9322 29.3187 43.8197 29.5994 43.6309 C30.0903 43.3012 30.5702 43.0143 31.0504 42.7000 C31.5051 42.4026 32.0482 42.0829 32.4890 41.8139 C32.7504 41.6543 33.0253 41.5721 33.2759 41.4102 C34.4789 40.6327 37.6135 39.2069 38.8468 38.7590 C39.9580 38.3556 41.2594 37.7969 42.3652 37.5143 C43.6354 37.1897 44.7664 36.7832 46.1276 36.5701 C49.1837 36.0916 51.5724 35.7650 54.3702 36.8450 C56.5291 37.6787 58.1309 39.7440 58.5011 42.1271 C58.6267 42.9355 58.7220 43.2584 58.7217 44.2880 C58.7217 45.0887 58.7571 46.9454 58.5660 47.6476 C58.5136 47.8381 58.4002 48.4736 58.3843 48.6567 C58.2846 49.8025 57.8718 51.3544 57.5450 52.5240 C57.0421 54.3226 56.4976 56.1042 55.8159 57.8259 C55.5729 58.4394 55.4329 58.9606 55.1693 59.5610 L54.1721 62.0793 C53.9079 62.8506 52.7715 65.3772 52.3709 66.1754 L50.8399 69.3508 C50.0596 70.9155 49.3534 72.5505 48.5717 74.1138 C48.3055 74.6467 48.0175 75.2145 47.8346 75.7585 C47.7210 76.0966 47.5963 76.2344 47.4789 76.5933 C47.4313 76.7387 47.2893 77.3481 47.1543 77.4029 L47.1543 77.8564 C47.3423 77.9244 47.5243 78.1730 47.6623 78.3122 C47.8653 78.5169 47.9650 78.5225 48.1748 78.7068 L49.3089 79.4441 L49.7628 79.4441 C49.7656 79.3057 50.2438 78.4823 50.3487 78.2725 C50.5230 77.9250 50.7036 77.4383 50.8771 77.0998 C51.2705 76.3342 51.5460 75.4742 51.8967 74.7170 L52.9101 72.3283 C53.2199 71.4748 53.5689 70.7429 53.8730 69.8888 L57.2284 63.0374 C57.6652 62.1618 58.3557 61.1436 58.7585 60.3150 L61.3052 56.0571 C61.4166 55.8944 61.5759 55.6736 61.6493 55.5506 C61.8761 55.1696 62.0419 54.8385 62.2837 54.4842 L64.9380 50.3340 C65.7935 48.8974 66.6694 47.5889 67.5899 46.1815 C68.0066 45.5446 68.5630 44.7494 68.9085 44.0980 C69.0908 43.7550 69.3978 43.3641 69.6076 43.0390 C69.7518 42.8154 69.8142 42.8003 69.9721 42.5534 L71.0379 41.0672 C71.4385 40.4467 73.0236 38.5767 73.6441 37.7195 L74.3746 36.7489 C74.7624 36.2801 75.0784 35.7602 75.4764 35.2990 C75.8200 34.9013 76.6633 33.6597 76.9510 33.3717 C77.1902 33.1319 77.1471 33.1022 77.3212 32.8910 C77.4488 32.7359 77.6064 32.6407 77.7314 32.4508 L78.4817 31.5000 C78.6195 31.3438 78.7893 31.2197 78.9077 31.0754 C79.0792 30.8668 79.0373 30.8254 79.2751 30.5924 C79.7306 30.1465 79.8163 29.9327 80.0691 29.6853 C80.6528 29.1132 80.5243 29.1620 80.8634 28.7782 C81.1826 28.4168 81.3872 28.3193 81.6727 27.8867 L83.3040 26.1156 C83.4922 25.9027 83.4514 25.8466 83.6691 25.6303 C84.1932 25.1093 84.0750 25.2012 84.4656 24.7258 C84.8344 24.2771 85.3279 23.8626 85.7409 23.4493 C86.2597 22.9306 86.4612 22.8436 86.6509 22.6579 C86.9553 22.3603 87.1920 22.1003 87.4962 21.8024 C87.7173 21.5864 87.7751 21.6335 87.9829 21.4384 C88.1266 21.3044 88.2465 21.1623 88.4035 21.0087 C88.6246 20.7924 88.6825 20.8395 88.8902 20.6447 C89.0240 20.5194 89.1598 20.3403 89.3169 20.2210 C90.0040 19.6991 91.0641 18.7914 91.7130 18.3640 C91.8941 18.2444 92.0381 18.1528 92.2062 18.0071 C92.4282 17.8143 92.9608 17.4767 93.2363 17.3356 C94.0944 16.8968 94.5539 16.3848 95.7036 16.3984 L95.2390 16.9569 C95.4329 17.3449 95.6925 17.2846 95.6925 17.7506 C95.6273 17.7769 95.2965 18.2265 95.2605 18.2826 C94.9226 18.8079 94.6417 18.8513 94.2727 19.2226 C94.1369 19.3592 93.9609 19.5628 93.8208 19.6781 L92.2317 20.9242 C91.9899 21.1717 91.9967 21.1445 91.7314 21.3313 C91.5477 21.4606 91.4202 21.6493 91.2424 21.8064 C90.8323 22.1686 90.8932 22.0252 90.2500 22.6848 C90.0210 22.9198 89.9546 22.9045 89.7392 23.0814 C89.3928 23.3657 87.2198 25.5076 86.9389 25.9515 C86.7186 26.2996 86.2926 26.5524 86.0530 26.9365 C85.9045 27.1746 85.7883 27.2554 85.5969 27.4448 C85.3801 27.6599 85.3971 27.7540 85.2046 27.9595 C85.0572 28.1169 84.8625 28.2600 84.7346 28.4536 C84.5510 28.7317 84.5597 28.7164 84.3236 28.9497 L82.9043 30.3656 C82.6588 30.6060 82.7056 30.6576 82.5103 30.8787 C82.3535 31.0564 82.1645 31.1840 82.0352 31.3676 C81.5774 32.0182 80.2406 33.4690 79.9288 33.9679 C79.6272 34.4509 78.6917 35.4303 78.2708 36.0525 C77.7487 36.8246 76.2786 38.5212 75.8248 39.2199 C75.2168 40.1559 74.4083 40.9674 73.8037 41.9049 L72.6474 43.5274 C72.1843 44.2494 71.6522 45.0241 71.1496 45.7722 L66.6366 52.5430 C66.1161 53.3089 65.6855 54.0451 65.1609 54.8096 C65.0143 55.0233 64.9508 55.1906 64.7994 55.4122 L63.7367 57.1278 C63.6066 57.3177 63.4561 57.5102 63.3518 57.7069 C63.2390 57.9189 63.1270 58.0570 63.0113 58.2738 L61.2649 61.2904 C60.6376 62.2137 60.2082 63.3325 59.5809 64.2560 C59.3546 64.5891 59.1636 65.1217 58.9490 65.4954 C58.8175 65.7233 58.7313 65.8094 58.5887 66.0994 C58.1071 67.0791 56.7621 69.6232 56.4537 70.5416 L52.4463 79.6329 C52.2088 80.1065 52.0608 80.4161 51.8590 80.9167 L51.2742 82.2030 C51.1398 82.4621 51.1211 82.6282 50.9927 82.8856 C50.9085 83.0549 50.7586 83.3258 50.6976 83.4976 C50.5777 83.8355 50.5290 83.8826 50.4048 84.1689 L49.8589 85.4941 C49.7752 85.6619 49.6383 85.9309 49.5550 86.0976 C49.3449 86.5171 49.1207 86.9057 48.8299 87.2439 C48.0523 88.1473 46.9945 87.4675 46.1336 87.1557 C46.1336 86.6546 46.4961 85.7809 46.6441 85.3413 C46.8505 84.7276 46.9358 84.1496 47.1124 83.4849 C47.3360 82.6410 47.2011 81.1605 46.4780 80.6874 C46.3598 80.6103 45.8334 80.3373 45.7934 80.2378 L45.5666 80.2378 C45.5618 80.4552 44.8526 81.3728 44.6828 81.6225 L42.1078 85.7948 C41.9958 86.0165 41.8363 86.2662 41.6894 86.5106 C41.2795 87.1940 40.7585 87.9319 40.4065 88.6300 C39.9770 89.4816 36.6817 94.4201 35.9036 95.4111 C35.5850 95.8164 35.3319 96.3581 35.0167 96.7360 C34.4730 97.3885 33.5747 98.9144 33.1756 99.3742 L30.4166 103.3628 C28.9281 105.5849 27.2653 107.7579 25.8134 109.9871 L25.0404 110.9154 C24.8924 111.0926 24.9605 111.0765 24.8122 111.2539 C24.0644 112.1477 23.3569 113.1931 22.5726 114.0611 C22.3903 114.2626 22.4898 114.2068 22.3427 114.3981 C22.2452 114.5248 22.1641 114.5622 22.0666 114.6889 C21.9223 114.8763 22.0139 114.8275 21.8370 115.0268 C21.4651 115.4466 21.1575 115.8219 20.7587 116.2162 C20.3624 116.6074 19.7631 117.4952 19.1072 117.9102 C18.9884 117.9856 18.0899 118.8717 17.2145 119.3630 C16.5966 119.7099 15.8698 120.0263 15.1044 120.1572" fill="#2f2f2f" fill-rule="evenodd"/>
  <path d="M173.4900 72.4127 C172.7711 72.6730 172.5795 72.8663 171.9723 73.2767 C171.5902 73.5353 170.9084 74.1824 170.6547 74.3409 C170.1950 74.6277 169.7845 75.0807 169.2941 75.3616 C168.6762 75.7157 168.2872 75.7905 167.5928 76.0419 C167.5928 75.0175 168.9531 72.9357 168.0837 72.0352 C167.6302 71.5655 166.4853 72.0006 166.0791 72.2033 C164.6130 72.9349 164.1815 73.1894 162.7943 74.0220 C162.2954 74.3210 161.7211 74.6416 161.1992 74.9787 L158.3668 76.5689 C158.1228 76.6948 158.1596 76.7174 157.9533 76.8359 C157.6854 76.9901 157.3985 77.0794 157.1346 77.2648 L151.2238 80.3129 C150.9318 80.4393 150.6832 80.5845 150.3930 80.7296 C150.0678 80.8920 149.7679 80.9929 149.4836 81.1247 C148.3801 81.6358 146.9254 82.2217 145.7527 82.4970 C145.4221 82.5747 144.9819 82.6367 144.7118 82.7036 C144.1519 82.8423 143.9501 82.6194 143.5504 82.6194 C143.5448 82.3813 143.3942 82.2439 143.3517 82.0809 C143.1686 81.3762 143.2712 80.9340 143.4461 80.1904 C143.9127 78.2045 145.5049 75.9337 146.5671 74.2958 C146.9214 73.7490 148.0561 72.2645 148.5403 71.7894 C148.8345 71.5011 148.9374 71.2746 149.2489 70.9668 L151.8837 68.3280 C152.0932 68.1171 152.1397 68.1531 152.3390 67.9893 C152.5785 67.7926 152.8413 67.4691 153.0743 67.2506 C153.2747 67.0629 153.3005 67.1219 153.5031 66.9422 C153.9164 66.5756 154.2742 66.2103 154.7351 65.9061 C154.8972 65.7989 154.9894 65.6688 155.1158 65.5495 C155.3151 65.3616 155.3754 65.4021 155.5727 65.2127 C155.7867 65.0072 156.1286 64.7408 156.4010 64.5664 C156.5946 64.4426 157.0025 64.0760 157.2494 63.8841 C158.3725 63.0116 159.5837 62.1743 160.7457 61.3698 L162.5236 60.1424 C163.0973 59.7674 163.7189 59.3547 164.3275 58.9411 C165.5521 58.1088 166.8217 57.4186 168.0545 56.6008 L172.3561 54.1545 C172.5613 54.0366 172.5667 53.9895 172.8074 53.8688 C173.1535 53.6953 173.4871 53.5601 173.8057 53.3359 C174.1144 53.1187 174.4379 53.0099 174.7774 52.8336 L176.2115 51.9993 C176.7841 51.6699 178.2181 50.9976 178.6640 50.7093 C179.6071 50.0995 180.7639 49.7452 181.7688 49.2211 C182.7553 48.7063 183.8687 48.3531 184.8694 47.8420 C185.2515 47.6467 185.5791 47.5314 185.9287 47.3706 C186.9571 46.8978 188.0762 46.4006 189.1103 46.0160 C189.5168 45.8649 189.8578 45.7787 190.2620 45.6367 C190.5891 45.5213 190.9417 45.3697 191.3374 45.2378 C195.6203 43.8097 199.9905 42.4463 204.5169 41.8031 C204.9214 41.7456 205.4707 41.7371 205.8378 41.6497 C206.0484 41.5996 206.8767 41.4530 207.1718 41.4527 C207.8107 41.4522 208.5471 41.2316 209.1594 41.2291 C209.6668 41.2268 209.4137 41.1378 209.8358 41.1112 C211.5102 41.0060 214.2071 40.5887 214.6915 42.0418 C215.0691 43.1745 214.3111 44.5626 213.6353 45.3646 C212.7997 46.3558 211.9995 47.1410 211.0584 48.0612 C210.8429 48.2720 210.8276 48.2094 210.6315 48.3710 C210.5048 48.4756 210.4047 48.6244 210.2587 48.7355 C210.0348 48.9056 210.0348 48.8410 209.8077 49.0782 C209.6167 49.2778 209.2088 49.5907 208.9862 49.7313 L207.2747 51.0253 C206.9773 51.2212 206.7024 51.4463 206.4013 51.6827 C205.8786 52.0932 205.1569 52.5509 204.5636 52.8500 L202.5975 53.8895 C201.5512 54.4119 200.5305 54.8980 199.4465 55.2748 C197.9915 55.7802 197.6961 55.9375 196.0135 56.3780 C194.3144 56.8225 192.5977 57.0949 191.1141 57.4892 C190.2376 57.7219 189.4663 57.7154 188.7885 58.1692 C187.9435 58.7356 188.1091 59.4856 188.9113 59.9400 C190.0114 60.5634 191.3094 60.3479 192.5657 60.0180 C194.8113 59.4284 196.1481 59.2183 198.4377 58.2920 C199.0871 58.0292 199.9111 57.5419 200.4945 57.3432 C201.1062 57.1349 203.7886 55.5636 204.4519 55.2337 C205.0486 54.9366 205.7420 54.4652 206.3092 54.0856 C206.8787 53.7049 207.5981 53.3500 208.1330 52.9041 C208.4068 52.6762 208.6838 52.5005 208.9967 52.2936 C209.2941 52.0971 209.5690 51.8723 209.8704 51.6359 L210.7451 50.9797 C210.9852 50.7790 211.3982 50.5542 211.6253 50.3292 C212.1386 49.8212 212.7370 49.4411 213.2388 48.9376 C213.4894 48.6870 213.6883 48.4404 214.0118 48.2360 C214.2754 48.0691 214.5892 47.7536 214.7698 47.4633 C214.9611 47.1572 215.2222 46.9656 215.4813 46.7002 C215.6692 46.5080 215.9782 46.0443 216.1312 45.8189 C216.5924 45.1389 216.9119 44.7188 217.1322 43.8149 C217.4956 42.3247 217.2331 41.3799 216.3016 40.4317 C215.9388 40.0626 215.8600 40.0737 215.3758 39.8265 C213.9214 39.0838 211.4184 38.9877 209.3227 39.0674 C208.8357 39.0861 209.1458 39.1558 208.7042 39.1862 C208.4771 39.2020 208.1917 39.1623 207.9680 39.1870 C207.6185 39.2253 207.7858 39.3052 207.2871 39.2998 C206.1388 39.2879 200.8157 40.3968 199.6628 40.6914 C198.9266 40.8793 198.0612 41.0854 197.2604 41.2949 C196.4701 41.5018 195.6555 41.6815 194.8972 41.9363 L188.0084 44.1201 C187.3273 44.4073 186.5764 44.7350 185.8649 44.9819 L182.7522 46.3487 C182.4350 46.5103 182.0554 46.6393 181.6931 46.8210 L171.7886 51.9993 C170.0736 52.9858 167.4720 54.4669 166.0757 55.3589 L164.1988 56.4874 C163.5846 56.8948 163.0239 57.3072 162.3762 57.6703 C162.0530 57.8514 161.8260 58.0796 161.5139 58.2820 L156.2519 62.0926 C156.0243 62.2364 156.0314 62.2840 155.8542 62.4322 C155.3868 62.8231 154.5857 63.3461 154.1832 63.7665 C153.9561 64.0038 153.9561 63.9394 153.7322 64.1095 C153.5862 64.2203 153.4861 64.3694 153.3594 64.4737 C152.9535 64.8082 153.0587 64.6637 152.5686 65.1569 C152.3588 65.3678 152.3123 65.3318 152.1133 65.4956 C151.8738 65.6924 151.6110 66.0161 151.3777 66.2343 C151.1779 66.4214 151.1518 66.3636 150.9489 66.5428 L147.9484 69.5529 L146.1864 71.6465 C145.7853 72.0904 143.8917 74.8032 143.7024 75.1734 C143.5586 75.4540 143.3126 75.8166 143.1394 76.0845 C142.9577 76.3657 142.7842 76.7792 142.6241 77.1001 C142.1674 78.0112 142.0773 78.3289 141.6988 79.1802 C141.1274 80.4657 140.7815 82.9596 141.8182 84.0113 C142.1889 84.3877 142.1887 84.3764 142.6793 84.6241 C142.9554 84.7636 143.5260 84.9456 143.8421 84.9926 C145.2073 85.1959 147.4792 84.4668 148.7670 83.8670 C149.4417 83.5529 150.2512 83.3020 150.8848 82.9792 L152.9252 82.0145 C153.6154 81.6696 154.2382 81.3575 154.9287 81.0125 C155.5696 80.6925 156.1816 80.2880 156.8591 79.9379 L160.6751 77.7433 C160.8817 77.6245 160.8840 77.5783 161.1266 77.4576 C161.3356 77.3535 161.4549 77.3070 161.6389 77.1758 L162.6024 76.6086 C163.9247 75.8342 163.6237 76.9697 163.6234 78.1399 C163.6231 79.3735 163.7237 79.7720 164.5648 80.2038 C166.0740 80.9782 167.9309 79.1589 168.7601 78.6269 L170.0889 77.7444 C170.3004 77.6081 170.3282 77.5386 170.5414 77.4029 C171.1293 77.0270 171.6922 76.5119 172.2515 76.1077 C175.1066 74.0455 173.6878 72.9593 173.4900 72.4127" fill="#2f2f2f" fill-rule="evenodd"/>
  <path d="M204.2232 70.9387 C203.0615 70.9387 200.3482 71.9895 199.1951 72.4879 C198.6999 72.7019 198.2140 72.9800 197.7216 73.2257 C196.4891 73.8414 193.6766 76.0859 192.8574 77.1509 C192.6720 77.3924 192.1314 78.2510 192.2363 78.6081 C192.3999 79.1663 192.8594 79.5039 193.6205 79.4475 C194.4842 79.3837 196.6391 78.0494 197.2213 77.5457 L200.4018 75.2256 C200.9222 74.8851 201.1564 74.7023 201.8418 74.4543 C201.9983 74.8865 202.2318 74.9370 202.4572 75.2562 C203.2469 76.3750 203.5003 76.8368 205.1872 76.8356 C205.7241 76.8354 207.5536 76.7826 207.9230 76.6797 C208.0630 76.6406 209.0310 76.5048 209.1580 76.4972 C209.6887 76.4646 209.9931 76.3554 210.4172 76.2817 C217.9171 74.9761 215.7245 71.9201 217.1234 71.4206 C219.2309 70.6683 235.0599 73.1514 237.8367 73.5588 L245.2173 74.7972 C245.9398 74.8593 246.9175 75.1901 247.6579 75.2480 C248.6633 75.3268 253.6296 76.4632 254.7462 76.8356 C256.2075 77.3232 258.4106 77.6784 259.3661 77.9995 C260.3679 78.3366 262.8108 78.8250 263.9322 79.2173 C264.6266 79.4602 265.4629 79.6153 266.2376 79.8038 L270.6800 81.1452 C271.3706 81.2979 275.0156 82.6631 275.2160 82.1659 L275.3294 82.1659 L275.3294 82.1656 C275.0409 81.3705 272.3346 80.1091 271.4366 79.6513 C270.7064 79.2791 268.8729 78.5733 268.0288 78.2394 C266.6619 77.6982 263.2986 76.5907 261.9215 76.2378 C258.7745 75.4311 256.2503 74.2425 253.4159 73.5160 C253.0854 73.4312 252.5448 73.2453 252.1519 73.1359 C250.4157 72.6534 248.7957 72.2693 246.9988 71.8248 C245.3085 71.4070 243.4689 71.0688 241.7185 70.6411 C240.6594 70.3823 238.9802 70.1195 237.7049 69.8349 C237.4614 69.7805 237.1955 69.7640 237.0220 69.7235 L232.2303 68.9017 C231.7209 68.8524 231.1812 68.7940 230.7872 68.7002 C230.3634 68.5993 229.8070 68.6154 229.3520 68.5477 C229.0632 68.5049 228.2278 68.3365 227.9268 68.3286 C227.0767 68.3062 225.5292 67.9890 225.0366 67.9867 C224.5192 67.9847 224.1473 67.9178 223.5577 67.8782 C223.1382 67.8501 223.3857 67.7636 222.8828 67.7591 C222.4735 67.7554 222.4446 67.7892 222.0990 67.6925 C221.4317 67.5060 219.7993 67.6250 219.1068 67.4524 C218.4143 67.2798 216.8039 67.4388 216.0884 67.2387 C215.3123 67.0218 212.8147 67.2146 212.3002 67.3914 C211.0056 67.8368 210.2343 68.0667 210.9305 69.5047 C211.7432 71.1834 213.6909 70.3366 214.0398 71.2729 C214.3942 72.2245 213.3176 72.8547 212.7677 73.1322 C211.2727 73.8865 207.7642 74.4044 205.8109 74.2275 C204.8624 74.1416 205.3757 73.3533 204.7714 72.0346 C204.6869 71.8501 204.6645 71.6658 204.5443 71.4680 C204.4449 71.3041 204.3128 71.1862 204.2232 70.9387" fill="#2f2f2f" fill-rule="evenodd"/>
  <path d="M219.6468 53.5873 C218.9214 53.5873 219.0572 53.2245 217.2662 53.7585 C216.4757 53.9943 215.9538 54.1871 215.2619 54.5326 C214.7346 54.7960 213.8417 55.1792 213.4179 55.4669 C212.5908 56.0285 211.2474 56.7510 210.4841 57.3531 L206.8316 59.9947 C206.6182 60.1818 206.2766 60.4063 206.0459 60.5702 L203.3243 62.7248 C203.1812 62.8265 203.1106 62.9470 202.9674 63.0485 L201.8140 63.9930 C201.6062 64.1809 201.6258 64.0882 201.4152 64.2748 C201.2831 64.3915 201.2117 64.5066 201.0725 64.6124 C200.7094 64.8887 200.2235 65.2258 199.9140 65.5518 L199.1446 66.2000 C198.9439 66.3543 198.9621 66.2743 198.7492 66.4849 C198.6165 66.6162 198.5511 66.7114 198.3969 66.8132 C198.0255 67.0584 197.9660 67.2191 197.6102 67.4442 C197.3880 67.5848 197.1496 67.8498 196.8599 68.0550 L196.0872 68.6996 C195.8700 68.9162 195.8975 68.8286 195.6932 68.9859 L194.9533 69.6070 C194.7387 69.8207 194.7305 69.7547 194.5295 69.9205 C193.2687 70.9631 191.9857 71.5314 190.5024 72.1310 C190.0806 72.3019 189.6608 72.5525 189.0405 72.7668 L187.0608 73.5659 C186.5662 73.7938 185.5837 74.0838 184.9884 74.2717 C184.2389 74.5084 183.4078 74.7998 182.9021 74.1714 C182.1932 73.2901 182.7125 73.2217 181.0860 73.2045 C179.9147 73.1920 177.8494 74.1005 177.0891 74.7646 C176.7787 75.0359 176.9474 74.7950 176.3535 75.3897 C175.5757 76.1684 174.6264 76.9499 175.3444 78.0432 C175.7701 78.6915 176.2903 78.8896 177.0902 79.0759 C178.0727 79.3040 180.7157 78.4633 181.5795 78.0645 C181.8363 77.9457 182.2663 77.8127 182.5654 77.6892 L185.6245 76.5522 C185.9995 76.4272 187.4143 75.9368 187.7791 75.9286 C187.7791 76.4975 187.4256 78.0228 187.9707 78.2887 C189.3175 78.9455 190.1446 77.1421 190.6968 76.5780 C191.3440 75.9172 191.3094 75.7262 192.0804 75.1830 C192.2771 75.0447 192.3724 74.8644 192.5850 74.7235 C193.7285 73.9653 195.2725 72.7404 196.3877 72.0054 L198.5618 70.4370 C198.7101 70.3281 198.9768 70.1856 199.1432 70.0546 L202.3982 67.6962 C202.6191 67.5505 202.7333 67.4691 202.9218 67.3121 C203.0783 67.1817 203.3147 67.0553 203.5001 66.9266 C203.6962 66.7908 203.7849 66.6964 204.0199 66.5391 C204.2518 66.3840 204.3768 66.2698 204.5727 66.1280 L205.6680 65.3519 C205.8435 65.1997 206.0045 65.0974 206.1964 64.9732 L207.8538 63.7954 C208.4814 63.3903 209.8134 62.3359 210.5507 61.8426 L212.7274 60.2768 C214.0004 59.4556 215.8302 58.0119 217.0809 57.1456 C217.7028 56.7148 219.3939 55.5786 219.7653 55.1237 C220.1357 54.6693 219.6493 53.6998 219.6468 53.5873" fill="#2f2f2f" fill-rule="evenodd"/>
  <path d="M82.8777 75.1346 L82.8777 76.0419 C82.6917 76.1171 82.7254 76.4683 82.3127 76.7245 C81.0805 77.4899 81.1307 77.4250 79.7780 78.1024 C79.3514 78.3162 76.3109 79.8800 76.1837 78.5395 C76.1397 78.0775 76.1939 77.7334 76.3115 77.4142 C76.8784 75.8744 77.0281 76.0884 78.4278 75.6182 C79.6003 75.2244 80.9889 74.9687 82.3144 75.0175 C82.8272 75.0362 82.4978 75.1261 82.8777 75.1346 Z M75.2791 74.7944 L75.2791 74.6810 C75.1527 74.6300 75.0762 74.0962 75.0121 73.9276 C74.8672 73.5455 74.6844 73.5565 74.5988 73.3201 L74.2586 73.3201 C74.1974 73.4718 73.6773 73.4505 73.4485 73.5304 C72.7180 73.7864 71.9847 74.1620 71.4501 74.7080 C68.7535 77.4610 69.8369 76.3951 66.0631 77.7697 C65.4415 77.9961 64.5341 78.5923 63.9139 78.7958 C63.8841 78.8054 63.0904 78.9891 63.0312 78.9905 C63.0312 77.8510 63.9473 77.4802 64.4828 76.6996 C65.1373 75.7440 65.4358 74.9469 64.4494 74.1135 C63.2092 73.0656 61.5132 74.6277 60.6745 75.2726 L59.5998 76.1261 C59.3552 76.3702 59.3042 76.3294 59.0896 76.5233 C58.8506 76.7393 58.7622 76.7772 58.5522 76.9496 C58.4014 77.0735 58.2483 77.2784 58.0975 77.4023 C57.8628 77.5948 57.8163 77.5562 57.5609 77.8295 C57.0090 78.4205 55.2932 78.1773 55.0069 79.0744 C54.8325 79.6195 54.9337 80.1389 54.8637 80.8027 C54.7637 81.7529 53.7199 83.0503 54.6446 83.6912 C56.1767 84.7534 58.1587 84.7953 59.7322 83.9135 L61.5334 82.8227 C62.7216 82.0148 63.7688 81.3447 65.0350 80.7106 C65.4199 80.5178 65.9597 80.2026 66.3199 80.0680 C67.4810 79.6340 68.0083 80.7687 69.0985 80.6981 C69.9531 80.6426 70.1518 79.4846 70.8840 78.6779 C71.1082 78.4307 71.0923 78.4259 71.2854 78.1719 C71.4231 77.9902 71.6287 77.8493 71.7630 77.6857 C72.2480 77.0956 72.0357 77.3008 72.6710 76.6656 C73.3340 76.0023 73.9590 75.4895 74.9390 75.1346 C74.9390 76.0561 74.8100 76.7874 74.3984 77.3158 C73.9579 77.8808 73.4530 78.1495 73.2640 78.9599 C73.2186 79.1544 73.2016 80.0895 73.2620 80.2704 C73.3207 80.4464 73.7575 80.8121 73.9174 80.9759 C74.3924 81.4635 74.9863 81.6928 75.7735 81.8986 C77.2217 82.2767 80.2298 80.9042 81.0062 80.3514 C81.2769 80.1584 81.5686 80.0552 81.8674 79.8514 C82.6427 79.3222 83.4837 78.8981 84.2669 78.1115 C85.0099 77.3654 85.5420 76.7889 85.9949 75.7001 C86.5633 74.3343 85.0385 73.0820 83.8312 72.7067 C82.8108 72.3895 81.2614 72.5358 80.1984 72.7957 C78.5537 73.1977 78.5903 73.0775 77.0919 73.8284 C76.6069 74.0716 75.9257 74.7800 75.2791 74.7944" fill="#2f2f2f" fill-rule="evenodd"/>
  <path d="M102.6105 80.4648 L102.6105 80.8050 C102.9280 80.8121 104.1358 81.6888 105.3079 81.2911 C106.5266 80.8776 108.4958 79.3837 110.5311 79.8021 C111.5470 80.0113 112.4575 80.0110 113.7243 80.0110 C113.8745 79.5960 114.5151 79.0623 114.3575 78.6501 C114.3377 78.5971 113.9941 78.0715 113.9528 78.0248 C113.6974 77.7354 112.2151 77.1696 112.5247 76.3804 C112.6250 76.1247 112.8226 75.9821 113.0148 75.7860 C113.4054 75.3877 115.0767 74.5101 115.6527 74.2278 C116.3259 73.8981 116.9580 73.4298 117.4952 72.8949 C117.9009 72.4907 118.1472 72.1752 118.1472 71.3923 C117.6367 71.2072 117.9351 71.1544 117.1270 71.1649 C116.5558 71.1723 116.3421 71.0518 115.9926 71.0518 L115.9926 70.5983 L120.0180 66.5153 C120.2888 66.2397 120.5025 66.1536 120.7565 65.8931 L124.8463 61.8174 C125.4722 61.3769 127.6160 59.1449 128.2969 58.4637 C128.5237 58.2372 128.7524 58.0119 128.9772 57.7831 C129.5348 57.2156 130.2267 56.9353 130.9071 55.6299 C131.3697 54.7413 130.7208 54.3821 130.1615 53.9909 C129.4461 53.4906 128.8548 54.2772 128.4673 54.6647 C128.0310 55.1010 127.9562 55.2575 127.5012 55.7399 L126.0207 57.6618 C125.9192 57.8050 125.7987 57.8753 125.6970 58.0184 C125.2905 58.5916 125.2661 58.5462 124.7247 59.0876 L117.9451 65.8602 C117.3455 66.3154 117.0043 66.5810 116.4745 67.1111 C116.0031 67.5825 115.5917 68.0091 115.1158 68.4743 C114.9032 68.6826 114.9222 68.6058 114.7201 68.7592 C114.5979 68.8519 114.4911 68.9803 114.3763 69.0956 C113.6860 69.7890 113.5871 69.7904 112.9612 70.4024 C112.6820 70.6754 112.7792 70.4551 112.2233 71.0252 C111.9620 71.2928 111.7774 71.3446 111.4849 71.6480 C111.1201 72.0258 109.7561 73.0264 109.2745 73.5202 C109.0134 73.7878 108.8291 73.8397 108.5363 74.1427 C108.2537 74.4355 108.0839 74.4730 107.7982 74.7655 C107.2338 75.3429 107.1028 75.3486 106.3811 76.0703 C105.7056 76.7458 105.9939 76.5165 105.3074 77.0377 L104.2843 78.0560 C104.0632 78.2513 104.0780 78.1416 103.8835 78.3357 L103.0235 79.5175 C102.6530 80.2318 102.7834 80.3951 102.6105 80.4648" fill="#2f2f2f" fill-rule="evenodd"/>
  <path d="M97.5070 76.1553 C97.5070 75.3687 97.7715 73.3587 96.2640 73.3156 C94.3126 73.2597 93.6686 74.1977 92.1838 74.3933 C91.8317 74.4398 91.0604 73.5582 89.9932 74.6518 C88.9965 75.6732 88.9169 76.0697 88.0943 76.8923 C87.4210 77.5656 86.6574 78.2121 86.1004 78.9812 C85.6321 79.6272 85.6037 79.4951 86.2226 80.1250 C86.5216 80.4294 86.3983 80.3804 86.8453 80.5229 C87.6220 80.7704 87.6399 80.8302 88.3919 80.3086 C88.5322 80.2109 88.5404 80.1712 88.6706 80.0771 C88.8228 79.9671 88.7902 80.0331 88.9744 79.8707 C89.1660 79.7012 89.2862 79.5130 89.4977 79.3735 C90.3815 78.7898 89.8483 78.7833 91.9488 77.6849 C92.6223 77.3328 92.6254 77.6960 92.7439 77.4029 L92.9707 77.4029 C93.0124 77.5174 93.8220 78.6478 93.9325 78.7657 C94.9612 79.8642 95.6778 79.9640 97.2422 79.1793 C97.7219 78.9387 98.4050 78.6524 98.8251 78.3808 C99.0513 78.2348 100.1083 77.5335 100.2937 77.5182 C100.4876 77.5023 101.7094 78.0608 102.0419 78.1475 C102.3542 78.2289 103.1808 77.5794 103.4376 77.3226 C103.4960 77.2642 103.9314 76.6857 103.9541 76.6486 C104.0666 76.4646 104.1548 75.8781 104.3116 75.8149 L104.3116 75.2480 C103.9737 75.2480 103.8776 75.1819 103.7789 75.1743 C103.4269 75.1468 103.8421 75.3259 103.3336 75.2125 C102.9577 75.1289 102.7114 74.9605 102.4960 74.7389 C101.8171 74.0404 101.8885 73.8851 100.8692 74.4140 C100.0624 74.8327 98.8858 76.1553 97.5070 76.1553" fill="#2f2f2f" fill-rule="evenodd"/>
  <path d="M134.5912 75.8149 L134.5912 75.7018 C134.1714 75.7018 133.9671 75.4682 133.3865 75.6309 C133.1306 75.7026 132.4312 75.7735 132.1529 75.8149 C131.4164 75.9252 130.5774 76.1290 129.8727 76.3132 C128.5960 76.6474 126.6009 77.1769 125.0841 76.8166 C124.3040 76.6313 124.1949 76.2256 123.6818 75.4404 C123.4689 75.1150 122.7436 74.0721 122.2705 74.1543 C121.1820 74.3431 118.9298 75.3163 119.3046 76.7549 C119.5688 77.7688 121.6837 78.5322 122.6455 78.9718 C123.3788 79.3066 124.5691 79.6924 125.3075 79.7641 C125.6170 79.7942 125.3860 79.6870 125.8549 79.6674 C126.0746 79.6581 126.3229 79.6830 126.5431 79.6745 C127.0281 79.6564 126.7197 79.5861 127.1642 79.5592 C127.9791 79.5093 128.7289 79.2641 129.4671 79.0829 C130.4963 78.8301 130.6576 78.7215 131.5310 78.3686 C132.4860 77.9823 133.8868 77.2892 134.3477 76.3087 C134.4387 76.1154 134.4600 75.8679 134.5912 75.8149" fill="#2f2f2f" fill-rule="evenodd"/>
  <path d="M108.8478 61.4123 L108.8478 61.5257 C109.0449 61.5972 109.5894 62.4121 111.0453 62.9572 C111.9090 63.2809 112.8478 64.0769 113.4669 64.2215 C115.7380 64.7510 114.6325 62.4852 113.8649 61.4985 C113.7039 61.2916 112.7231 60.6515 112.3934 60.5319 C109.7059 59.5554 109.1169 61.3038 108.8478 61.4123" fill="#2f2f2f" fill-rule="evenodd"/>
</svg>
